<?xml version="1.0" encoding="UTF-8"?>
<svg width="400" height="300" viewBox="0 0 400 300" fill="none" xmlns="http://www.w3.org/2000/svg">
    <!-- Background Circle -->
    <circle cx="200" cy="150" r="120" fill="#E8F0FE"/>
    
    <!-- Survey Form -->
    <rect x="120" y="60" width="160" height="180" rx="8" fill="white" stroke="#1a73e8" stroke-width="2"/>
    
    <!-- Form Lines -->
    <line x1="140" y1="90" x2="260" y2="90" stroke="#1a73e8" stroke-width="2"/>
    <line x1="140" y1="120" x2="260" y2="120" stroke="#1a73e8" stroke-width="2"/>
    <line x1="140" y1="150" x2="260" y2="150" stroke="#1a73e8" stroke-width="2"/>
    
    <!-- Checkboxes -->
    <rect x="140" y="170" width="16" height="16" rx="2" fill="white" stroke="#1a73e8" stroke-width="2"/>
    <rect x="140" y="195" width="16" height="16" rx="2" fill="white" stroke="#1a73e8" stroke-width="2"/>
    <path d="M142 178L154 190M154 178L142 190" stroke="#1a73e8" stroke-width="2"/>
    <path d="M144 203L152 203" stroke="#1a73e8" stroke-width="2"/>
    
    <!-- Text Lines -->
    <line x1="170" y1="178" x2="250" y2="178" stroke="#1a73e8" stroke-width="2"/>
    <line x1="170" y1="203" x2="250" y2="203" stroke="#1a73e8" stroke-width="2"/>
    
    <!-- Decorative Elements -->
    <circle cx="320" cy="80" r="15" fill="#1a73e8" opacity="0.2"/>
    <circle cx="80" cy="220" r="20" fill="#1a73e8" opacity="0.2"/>
    <circle cx="350" cy="180" r="10" fill="#1a73e8" opacity="0.2"/>
</svg> 